<svg xmlns="http://www.w3.org/2000/svg" xmlns:xlink="http://www.w3.org/1999/xlink" xmlns:lucid="lucid" width="1480" height="1276.67"><g transform="translate(960 -2820)" lucid:page-tab-id="0_0"><path d="M-940 2846a6 6 0 0 1 6-6h608a6 6 0 0 1 6 6v1088a6 6 0 0 1-6 6h-608a6 6 0 0 1-6-6z" stroke="#5e5e5e" stroke-width="8" fill="#e3fae3"/><path d="M-120 2846a6 6 0 0 1 6-6h608a6 6 0 0 1 6 6v1088a6 6 0 0 1-6 6h-608a6 6 0 0 1-6-6z" stroke="#5e5e5e" stroke-width="8" fill="#fff0fb"/><path d="M-860 3966a6 6 0 0 1 6-6h451.55a6 6 0 0 1 6 6v104.67a6 6 0 0 1-6 6H-854a6 6 0 0 1-6-6z" stroke="#000" stroke-opacity="0" stroke-width="8" fill="#fff" fill-opacity="0"/><use xlink:href="#a" transform="matrix(1,0,0,1,-855,3965) translate(0.703703703703809 62.30555555555554)"/><use xlink:href="#b" transform="matrix(1,0,0,1,-855,3965) translate(164.7777777777778 62.30555555555554)"/><path d="M-80 3966a6 6 0 0 1 6-6h529.77a6 6 0 0 1 6 6v104.67a6 6 0 0 1-6 6H-74a6 6 0 0 1-6-6z" stroke="#000" stroke-opacity="0" stroke-width="8" fill="#fff" fill-opacity="0"/><use xlink:href="#c" transform="matrix(1,0,0,1,-74.99999999999989,3965) translate(5.938271604938393 62.30555555555554)"/><use xlink:href="#b" transform="matrix(1,0,0,1,-74.99999999999989,3965) translate(237.5432098765432 62.30555555555554)"/><path d="M-790 2906a6 6 0 0 1 6-6h311.55a6 6 0 0 1 6 6v60.94a6 6 0 0 1-6 6H-784a6 6 0 0 1-6-6z" stroke="#333" stroke-width="8" fill="#fff"/><use xlink:href="#d" transform="matrix(1,0,0,1,-785,2905) translate(73.15432098765436 38.097222222222214)"/><use xlink:href="#e" transform="matrix(1,0,0,1,-785,2905) translate(219.858024691358 38.097222222222214)"/><path d="M-790 3006a6 6 0 0 1 6-6h311.55a6 6 0 0 1 6 6v60.94a6 6 0 0 1-6 6H-784a6 6 0 0 1-6-6z" stroke="#333" stroke-width="8" fill="#fff"/><use xlink:href="#d" transform="matrix(1,0,0,1,-785,3005) translate(73.15432098765436 38.097222222222214)"/><use xlink:href="#f" transform="matrix(1,0,0,1,-785,3005) translate(219.858024691358 38.097222222222214)"/><path d="M-790 3106a6 6 0 0 1 6-6h311.55a6 6 0 0 1 6 6v60.94a6 6 0 0 1-6 6H-784a6 6 0 0 1-6-6z" stroke="#333" stroke-width="8" fill="#fff"/><use xlink:href="#d" transform="matrix(1,0,0,1,-785,3105) translate(73.15432098765436 38.097222222222214)"/><use xlink:href="#g" transform="matrix(1,0,0,1,-785,3105) translate(219.858024691358 38.097222222222214)"/><path d="M-790 3206a6 6 0 0 1 6-6h311.55a6 6 0 0 1 6 6v60.94a6 6 0 0 1-6 6H-784a6 6 0 0 1-6-6z" stroke="#333" stroke-width="8" fill="#fff"/><use xlink:href="#d" transform="matrix(1,0,0,1,-785,3205) translate(73.15432098765436 38.097222222222214)"/><use xlink:href="#h" transform="matrix(1,0,0,1,-785,3205) translate(219.858024691358 38.097222222222214)"/><path d="M-790 3306a6 6 0 0 1 6-6h311.55a6 6 0 0 1 6 6v60.94a6 6 0 0 1-6 6H-784a6 6 0 0 1-6-6z" stroke="#333" stroke-width="8" fill="#fff"/><use xlink:href="#d" transform="matrix(1,0,0,1,-785,3305) translate(73.15432098765436 38.097222222222214)"/><use xlink:href="#i" transform="matrix(1,0,0,1,-785,3305) translate(219.858024691358 38.097222222222214)"/><path d="M-790 3406a6 6 0 0 1 6-6h311.55a6 6 0 0 1 6 6v60.94a6 6 0 0 1-6 6H-784a6 6 0 0 1-6-6z" stroke="#333" stroke-width="8" fill="#fff"/><use xlink:href="#d" transform="matrix(1,0,0,1,-785,3405) translate(73.15432098765436 38.097222222222214)"/><use xlink:href="#j" transform="matrix(1,0,0,1,-785,3405) translate(219.858024691358 38.097222222222214)"/><path d="M-790 3506a6 6 0 0 1 6-6h311.55a6 6 0 0 1 6 6v60.94a6 6 0 0 1-6 6H-784a6 6 0 0 1-6-6z" stroke="#333" stroke-width="8" fill="#fff"/><use xlink:href="#d" transform="matrix(1,0,0,1,-785,3505) translate(73.15432098765436 38.097222222222214)"/><use xlink:href="#k" transform="matrix(1,0,0,1,-785,3505) translate(219.858024691358 38.097222222222214)"/><path d="M-790 3606a6 6 0 0 1 6-6h311.55a6 6 0 0 1 6 6v60.94a6 6 0 0 1-6 6H-784a6 6 0 0 1-6-6z" stroke="#333" stroke-width="8" fill="#fff"/><use xlink:href="#d" transform="matrix(1,0,0,1,-785,3605) translate(73.15432098765436 38.097222222222214)"/><use xlink:href="#l" transform="matrix(1,0,0,1,-785,3605) translate(219.858024691358 38.097222222222214)"/><path d="M-790 3706a6 6 0 0 1 6-6h311.55a6 6 0 0 1 6 6v60.94a6 6 0 0 1-6 6H-784a6 6 0 0 1-6-6z" stroke="#333" stroke-width="8" fill="#fff"/><use xlink:href="#d" transform="matrix(1,0,0,1,-785,3705) translate(73.15432098765436 38.097222222222214)"/><use xlink:href="#m" transform="matrix(1,0,0,1,-785,3705) translate(219.858024691358 38.097222222222214)"/><path d="M-790 3806a6 6 0 0 1 6-6h311.55a6 6 0 0 1 6 6v60.94a6 6 0 0 1-6 6H-784a6 6 0 0 1-6-6z" stroke="#333" stroke-width="8" fill="#ff8f8f"/><use xlink:href="#d" transform="matrix(1,0,0,1,-785,3805) translate(62.660493827160536 38.097222222222214)"/><use xlink:href="#n" transform="matrix(1,0,0,1,-785,3805) translate(209.36419753086417 38.097222222222214)"/><path d="M-458.45 3836.47h239.22a6 6 0 0 0 6-6V3066a6 6 0 0 1 6-6H4.8" stroke="#e81313" stroke-width="8" fill="none"/><path d="M-458.35 3840.47h-4.1v-8h4.1z" stroke="#e81313" stroke-width=".05" fill="#e81313"/><path d="M23.06 3060l-14.27 4.64v-9.28z" stroke="#e81313" stroke-width="8" fill="#e81313"/><path d="M40 2966a6 6 0 0 1 6-6h311.55a6 6 0 0 1 6 6v188a6 6 0 0 1-6 6H46a6 6 0 0 1-6-6z" stroke="#333" stroke-width="8" fill="#ff8f8f"/><g><use xlink:href="#o" transform="matrix(1,0,0,1,45,2965) translate(57.11111111111114 103.24999999999999)"/><use xlink:href="#p" transform="matrix(1,0,0,1,45,2965) translate(212.44444444444443 103.24999999999999)"/></g><path d="M90 3346a6 6 0 0 1 6-6h228a6 6 0 0 1 6 6v51.33a6 6 0 0 1-6 6H96a6 6 0 0 1-6-6z" stroke="#000" stroke-opacity="0" stroke-width="8" fill="#fff" fill-opacity="0"/><g><use xlink:href="#q" transform="matrix(1,0,0,1,95,3345) translate(67.03703703703705 38.93055555555554)"/></g><g><path d="M-817.8 3863.34a2 2 0 0 1-2.82 0l-48.53-48.53a2 2 0 0 1 0-2.82 2 2 0 0 1 2.83 0l48.53 48.53a2 2 0 0 1 0 2.84z" stroke="#e81313" stroke-width="4" fill="none"/></g><g><path d="M-821.8 3807.7a2 2 0 0 1 .22 2.82l-47.04 54.5a2 2 0 0 1-2.82.22 2 2 0 0 1-.2-2.82l47.03-54.5a2 2 0 0 1 2.8-.22z" stroke="#e81313" stroke-width="4" fill="none"/></g><g><path d="M248.3 3298.4a2 2 0 0 1-2.82 0l-71.33-71.33a2 2 0 0 1 0-2.83 2 2 0 0 1 2.83 0l71.33 71.34a2 2 0 0 1 0 2.83z" stroke="#e81313" stroke-width="4" fill="none"/></g><g><path d="M171.7 3299.52a2 2 0 0 1 0-2.82l72.05-72.07a2 2 0 0 1 2.83 0 2 2 0 0 1 0 2.83l-72.06 72.06a2 2 0 0 1-2.83 0z" stroke="#e81313" stroke-width="4" fill="none"/></g><defs><path fill="#333" d="M24 0v-248h52v208h133V0H24" id="r"/><path fill="#333" d="M140-251c80 0 125 45 125 126S219 4 139 4C58 4 15-44 15-125s44-126 125-126zm-1 214c52 0 73-35 73-88 0-50-21-86-72-86-52 0-73 35-73 86s22 88 72 88" id="s"/><path fill="#333" d="M67-125c0 53 21 87 73 88 37 1 54-22 65-47l45 17C233-25 199 4 140 4 58 4 20-42 15-125 8-235 124-281 211-232c18 10 29 29 36 50l-46 12c-8-25-30-41-62-41-52 0-71 34-72 86" id="t"/><path fill="#333" d="M199 0l-22-63H83L61 0H9l90-248h61L250 0h-51zm-33-102l-36-108c-10 38-24 72-36 108h72" id="u"/><g id="a"><use transform="matrix(0.12345679012345674,0,0,0.12345679012345674,0,0)" xlink:href="#r"/><use transform="matrix(0.12345679012345674,0,0,0.12345679012345674,27.037037037037027,0)" xlink:href="#s"/><use transform="matrix(0.12345679012345674,0,0,0.12345679012345674,61.60493827160491,0)" xlink:href="#t"/><use transform="matrix(0.12345679012345674,0,0,0.12345679012345674,93.5802469135802,0)" xlink:href="#u"/><use transform="matrix(0.12345679012345674,0,0,0.12345679012345674,125.55555555555549,0)" xlink:href="#r"/></g><path fill="#333" d="M240-174c0 40-23 61-54 70L253 0h-59l-57-94H76V0H24v-248c93 4 217-23 216 74zM76-134c48-2 112 12 112-38 0-48-66-32-112-35v73" id="v"/><path fill="#333" d="M24 0v-248h195v40H76v63h132v40H76v65h150V0H24" id="w"/><path fill="#333" d="M24-248c93 1 206-16 204 79-1 75-69 88-152 82V0H24v-248zm52 121c47 0 100 7 100-41 0-47-54-39-100-39v80" id="x"/><path fill="#333" d="M169-182c-1-43-94-46-97-3 18 66 151 10 154 114 3 95-165 93-204 36-6-8-10-19-12-30l50-8c3 46 112 56 116 5-17-69-150-10-154-114-4-87 153-88 188-35 5 8 8 18 10 28" id="y"/><path fill="#333" d="M24 0v-248h52V0H24" id="z"/><path fill="#333" d="M136-208V0H84v-208H4v-40h212v40h-80" id="A"/><path fill="#333" d="M146-102V0H94v-102L6-248h54l60 105 60-105h54" id="B"/><g id="b"><use transform="matrix(0.12345679012345674,0,0,0.12345679012345674,0,0)" xlink:href="#v"/><use transform="matrix(0.12345679012345674,0,0,0.12345679012345674,31.975308641975296,0)" xlink:href="#w"/><use transform="matrix(0.12345679012345674,0,0,0.12345679012345674,61.604938271604915,0)" xlink:href="#x"/><use transform="matrix(0.12345679012345674,0,0,0.12345679012345674,91.23456790123453,0)" xlink:href="#s"/><use transform="matrix(0.12345679012345674,0,0,0.12345679012345674,125.80246913580241,0)" xlink:href="#y"/><use transform="matrix(0.12345679012345674,0,0,0.12345679012345674,155.43209876543204,0)" xlink:href="#z"/><use transform="matrix(0.12345679012345674,0,0,0.12345679012345674,167.77777777777771,0)" xlink:href="#A"/><use transform="matrix(0.12345679012345674,0,0,0.12345679012345674,193.95061728395055,0)" xlink:href="#s"/><use transform="matrix(0.12345679012345674,0,0,0.12345679012345674,228.51851851851842,0)" xlink:href="#v"/><use transform="matrix(0.12345679012345674,0,0,0.12345679012345674,258.8888888888888,0)" xlink:href="#B"/></g><path fill="#333" d="M275 0h-61l-44-196L126 0H64L0-248h53L97-49l45-199h58l43 199 44-199h52" id="C"/><path fill="#333" d="M195 0l-88-114-31 24V0H24v-248h52v113l112-113h60L142-143 257 0h-62" id="D"/><path fill="#333" d="M175 0L67-191c6 58 2 128 3 191H24v-248h59L193-55c-6-58-2-129-3-193h46V0h-61" id="E"/><path fill="#333" d="M67-125c0 54 23 88 75 88 28 0 53-7 68-21v-34h-60v-39h108v91C232-14 192 4 140 4 58 4 20-42 15-125 8-236 126-280 215-234c19 10 29 26 37 47l-47 15c-11-23-29-39-63-39-53 1-75 33-75 86" id="F"/><g id="c"><use transform="matrix(0.12345679012345674,0,0,0.12345679012345674,0,0)" xlink:href="#C"/><use transform="matrix(0.12345679012345674,0,0,0.12345679012345674,41.85185185185183,0)" xlink:href="#s"/><use transform="matrix(0.12345679012345674,0,0,0.12345679012345674,76.41975308641972,0)" xlink:href="#v"/><use transform="matrix(0.12345679012345674,0,0,0.12345679012345674,108.395061728395,0)" xlink:href="#D"/><use transform="matrix(0.12345679012345674,0,0,0.12345679012345674,140.3703703703703,0)" xlink:href="#z"/><use transform="matrix(0.12345679012345674,0,0,0.12345679012345674,152.71604938271597,0)" xlink:href="#E"/><use transform="matrix(0.12345679012345674,0,0,0.12345679012345674,184.69135802469125,0)" xlink:href="#F"/></g><path fill="#333" d="M147 0H94L2-248h55l64 206c17-72 42-137 63-206h54" id="G"/><path fill="#333" d="M185-48c-13 30-37 53-82 52C43 2 14-33 14-96s30-98 90-98c62 0 83 45 84 108H66c0 31 8 55 39 56 18 0 30-7 34-22zm-45-69c5-46-57-63-70-21-2 6-4 13-4 21h74" id="H"/><path fill="#333" d="M135-150c-39-12-60 13-60 57V0H25l-1-190h47c2 13-1 29 3 40 6-28 27-53 61-41v41" id="I"/><path fill="#333" d="M137-138c1-29-70-34-71-4 15 46 118 7 119 86 1 83-164 76-172 9l43-7c4 19 20 25 44 25 33 8 57-30 24-41C81-84 22-81 20-136c-2-80 154-74 161-7" id="J"/><path fill="#333" d="M25-224v-37h50v37H25zM25 0v-190h50V0H25" id="K"/><path fill="#333" d="M110-194c64 0 96 36 96 99 0 64-35 99-97 99-61 0-95-36-95-99 0-62 34-99 96-99zm-1 164c35 0 45-28 45-65 0-40-10-65-43-65-34 0-45 26-45 65 0 36 10 65 43 65" id="L"/><path fill="#333" d="M135-194c87-1 58 113 63 194h-50c-7-57 23-157-34-157-59 0-34 97-39 157H25l-1-190h47c2 12-1 28 3 38 12-26 28-41 61-42" id="M"/><g id="d"><use transform="matrix(0.10493827160493824,0,0,0.10493827160493824,0,0)" xlink:href="#G"/><use transform="matrix(0.10493827160493824,0,0,0.10493827160493824,23.08641975308641,0)" xlink:href="#H"/><use transform="matrix(0.10493827160493824,0,0,0.10493827160493824,44.07407407407406,0)" xlink:href="#I"/><use transform="matrix(0.10493827160493824,0,0,0.10493827160493824,58.765432098765416,0)" xlink:href="#J"/><use transform="matrix(0.10493827160493824,0,0,0.10493827160493824,79.75308641975306,0)" xlink:href="#K"/><use transform="matrix(0.10493827160493824,0,0,0.10493827160493824,90.24691358024688,0)" xlink:href="#L"/><use transform="matrix(0.10493827160493824,0,0,0.10493827160493824,113.22839506172836,0)" xlink:href="#M"/></g><path fill="#333" d="M23 0v-37h61v-169l-59 37v-38l62-41h46v211h57V0H23" id="N"/><use transform="matrix(0.10493827160493824,0,0,0.10493827160493824,0,0)" xlink:href="#N" id="e"/><path fill="#333" d="M182-182c0 78-84 86-111 141h115V0H12c-6-101 99-100 120-180 1-22-12-31-33-32-23 0-32 14-35 34l-49-3c5-45 32-70 84-70 51 0 83 22 83 69" id="O"/><use transform="matrix(0.10493827160493824,0,0,0.10493827160493824,0,0)" xlink:href="#O" id="f"/><path fill="#333" d="M128-127c34 4 56 21 59 58 7 91-148 94-172 28-4-9-6-17-7-26l51-5c1 24 16 35 40 36 23 0 39-12 38-36-1-31-31-36-65-34v-40c32 2 59-3 59-33 0-20-13-33-34-33s-33 13-35 32l-50-3c6-44 37-68 86-68 50 0 83 20 83 66 0 35-22 52-53 58" id="P"/><use transform="matrix(0.10493827160493824,0,0,0.10493827160493824,0,0)" xlink:href="#P" id="g"/><path fill="#333" d="M165-50V0h-47v-50H5v-38l105-160h55v161h33v37h-33zm-47-37l2-116L46-87h72" id="Q"/><use transform="matrix(0.10493827160493824,0,0,0.10493827160493824,0,0)" xlink:href="#Q" id="h"/><path fill="#333" d="M139-81c0-46-55-55-73-27H18l9-140h149v37H72l-4 63c44-38 133-4 122 66C201 21 21 35 11-62l49-4c5 18 15 30 39 30 26 0 40-18 40-45" id="R"/><use transform="matrix(0.10493827160493824,0,0,0.10493827160493824,0,0)" xlink:href="#R" id="i"/><path fill="#333" d="M115-159c48 0 72 30 72 78 0 54-30 85-83 85-64 0-91-50-91-122 0-98 58-163 141-120 15 8 21 24 27 44l-47 6c-5-31-48-31-61-4-7 14-11 33-11 60 9-17 28-27 53-27zM102-35c24 0 36-20 36-45s-11-43-37-43c-23 0-36 14-36 38 0 27 11 50 37 50" id="S"/><use transform="matrix(0.10493827160493824,0,0,0.10493827160493824,0,0)" xlink:href="#S" id="j"/><path fill="#333" d="M52 0c1-96 47-148 87-207H15v-41h169v40c-36 62-79 113-81 208H52" id="T"/><use transform="matrix(0.10493827160493824,0,0,0.10493827160493824,0,0)" xlink:href="#T" id="k"/><path fill="#333" d="M138-131c27 9 52 24 51 61 0 53-36 74-89 74S11-19 11-69c0-35 22-54 51-61-78-25-46-121 38-121 51 0 83 19 83 66 0 30-18 49-45 54zm-38-16c24 0 32-13 32-36 1-23-11-34-32-34-22 0-33 12-32 34 0 22 9 36 32 36zm1 116c27 0 37-17 37-43 0-25-13-39-39-39-24 0-37 15-37 40 0 27 11 42 39 42" id="U"/><use transform="matrix(0.10493827160493824,0,0,0.10493827160493824,0,0)" xlink:href="#U" id="l"/><path fill="#333" d="M99-251c69 0 84 53 88 123 5 99-61 162-144 118-15-8-21-25-26-45l46-6c4 31 50 33 63 7 7-15 12-36 12-60-9 18-29 28-54 28-48 0-72-32-72-82 0-55 31-83 87-83zm-1 128c24 0 37-16 37-39 0-27-10-51-37-51-25 0-35 19-35 45 0 25 10 45 35 45" id="V"/><use transform="matrix(0.10493827160493824,0,0,0.10493827160493824,0,0)" xlink:href="#V" id="m"/><path fill="#333" d="M101-251c68 0 84 54 84 127C185-50 166 4 99 4S15-52 14-124c-1-75 17-127 87-127zm-1 216c37-5 36-46 36-89s4-89-36-89c-39 0-36 45-36 89 0 43-3 85 36 89" id="W"/><g id="n"><use transform="matrix(0.10493827160493824,0,0,0.10493827160493824,0,0)" xlink:href="#N"/><use transform="matrix(0.10493827160493824,0,0,0.10493827160493824,20.987654320987648,0)" xlink:href="#W"/></g><g id="o"><use transform="matrix(0.11111111111111108,0,0,0.11111111111111108,0,0)" xlink:href="#G"/><use transform="matrix(0.11111111111111108,0,0,0.11111111111111108,24.444444444444436,0)" xlink:href="#H"/><use transform="matrix(0.11111111111111108,0,0,0.11111111111111108,46.66666666666665,0)" xlink:href="#I"/><use transform="matrix(0.11111111111111108,0,0,0.11111111111111108,62.2222222222222,0)" xlink:href="#J"/><use transform="matrix(0.11111111111111108,0,0,0.11111111111111108,84.44444444444441,0)" xlink:href="#K"/><use transform="matrix(0.11111111111111108,0,0,0.11111111111111108,95.55555555555551,0)" xlink:href="#L"/><use transform="matrix(0.11111111111111108,0,0,0.11111111111111108,119.88888888888886,0)" xlink:href="#M"/></g><g id="p"><use transform="matrix(0.11111111111111108,0,0,0.11111111111111108,0,0)" xlink:href="#N"/><use transform="matrix(0.11111111111111108,0,0,0.11111111111111108,22.222222222222214,0)" xlink:href="#W"/></g><path fill="#333" d="M182-130c37 4 62 22 62 59C244 23 116-4 24 0v-248c84 5 203-23 205 63 0 31-19 50-47 55zM76-148c40-3 101 13 101-30 0-44-60-28-101-31v61zm0 110c48-3 116 14 116-37 0-48-69-32-116-35v72" id="X"/><path fill="#333" d="M24-248c120-7 223 5 221 122C244-46 201 0 124 0H24v-248zM76-40c74 7 117-18 117-86 0-67-45-88-117-82v168" id="Y"/><g id="q"><use transform="matrix(0.12345679012345674,0,0,0.12345679012345674,0,0)" xlink:href="#X"/><use transform="matrix(0.12345679012345674,0,0,0.12345679012345674,31.975308641975296,0)" xlink:href="#u"/><use transform="matrix(0.12345679012345674,0,0,0.12345679012345674,63.95061728395059,0)" xlink:href="#Y"/></g></defs></g></svg>