<?xml version="1.0" standalone="no"?>
<!DOCTYPE svg PUBLIC "-//W3C//DTD SVG 20010904//EN"
 "http://www.w3.org/TR/2001/REC-SVG-20010904/DTD/svg10.dtd">
<svg version="1.0" xmlns="http://www.w3.org/2000/svg"
 width="210.000000pt" height="230.000000pt" viewBox="0 0 210.000000 230.000000"
 preserveAspectRatio="xMidYMid meet">

<g transform="translate(0.000000,230.000000) scale(0.100000,-0.100000)"
fill="#000000" stroke="none">
<path d="M173 2239 c-45 -22 -143 -121 -143 -144 0 -29 23 -26 74 10 52 35 55
36 83 22 26 -14 44 -52 166 -353 l136 -338 -56 -100 c-122 -220 -206 -356
-219 -356 -7 0 -29 14 -48 30 -28 25 -38 29 -57 21 -28 -10 -81 -65 -99 -100
-12 -23 -10 -27 24 -58 43 -39 82 -43 141 -12 83 44 166 149 290 368 32 56 61
99 65 94 5 -4 41 -89 80 -188 92 -229 104 -252 143 -275 66 -41 143 -15 225
74 76 84 67 130 -13 66 -66 -53 -111 -34 -155 64 -15 34 -125 304 -245 601
-236 587 -240 595 -313 595 -20 0 -56 -9 -79 -21z"/>
<path d="M1401 1550 c-87 -42 -177 -135 -227 -235 -68 -137 -57 -286 28 -389
85 -103 238 -113 413 -27 44 22 109 63 144 91 l64 52 -7 -288 c-10 -389 -34
-541 -99 -628 -84 -110 -36 -124 67 -19 134 136 175 343 177 887 1 372 9 483
37 523 56 79 2 85 -73 8 -66 -67 -95 -138 -95 -230 0 -176 -62 -255 -237 -300
-79 -21 -120 -19 -179 9 -119 56 -172 197 -128 345 27 91 115 120 189 61 69
-55 152 -32 176 49 14 46 -2 88 -41 108 -47 24 -138 16 -209 -17z"/>
</g>
</svg>
