<?xml version="1.0" standalone="no"?>
<!DOCTYPE svg PUBLIC "-//W3C//DTD SVG 20010904//EN"
 "http://www.w3.org/TR/2001/REC-SVG-20010904/DTD/svg10.dtd">
<svg version="1.0" xmlns="http://www.w3.org/2000/svg"
 width="2013.000000pt" height="502.000000pt" viewBox="0 0 2013.000000 502.000000"
 preserveAspectRatio="xMidYMid meet">

<g transform="translate(0.000000,502.000000) scale(0.100000,-0.100000)"
fill="#000000" stroke="none">
<path d="M9575 3454 c-17 -8 -39 -24 -50 -33 -30 -28 -74 -47 -145 -66 -81
-21 -253 -15 -410 14 -245 46 -280 51 -385 57 -136 8 -207 -4 -302 -52 -104
-53 -204 -164 -145 -164 9 0 37 14 61 30 24 16 60 34 80 40 68 19 290 10 410
-16 22 -5 20 -8 -30 -36 -141 -81 -270 -204 -340 -324 -22 -39 -39 -56 -69
-68 -101 -40 -153 -2 -237 173 -30 64 -79 166 -109 227 -79 166 -136 206 -267
189 -63 -9 -164 -53 -217 -95 l-39 -31 -33 37 c-70 79 -188 99 -305 51 -71
-29 -192 -110 -243 -162 -19 -19 -36 -35 -39 -35 -4 0 -5 31 -3 69 4 89 -16
137 -67 159 -49 20 -160 5 -238 -34 -62 -30 -153 -113 -153 -139 0 -16 45 -22
54 -6 14 22 99 51 150 51 44 0 58 -4 79 -26 50 -49 46 -120 -15 -292 -32 -92
-66 -159 -107 -212 -35 -45 -54 -80 -47 -87 3 -3 36 1 73 10 162 39 295 46
453 26 47 -6 162 -11 255 -12 l170 -2 61 32 c84 44 196 136 273 224 36 41 70
80 77 88 11 12 18 3 44 -55 96 -212 140 -274 210 -295 44 -13 106 -2 171 31
21 11 40 20 41 20 2 0 4 -44 3 -97 0 -115 17 -174 76 -262 99 -148 297 -232
514 -218 115 8 190 28 290 77 149 74 309 236 356 360 28 75 23 168 -11 205
-38 41 -111 32 -152 -19 -26 -32 -22 -82 12 -142 28 -48 30 -57 20 -93 -25
-92 -112 -178 -225 -220 -153 -57 -385 -38 -519 42 -65 40 -145 127 -179 197
-30 61 -32 71 -32 175 0 84 4 117 16 135 9 14 19 37 22 51 18 74 183 204 324
255 83 30 82 30 348 25 147 -3 209 9 312 60 74 38 172 114 193 151 20 38 4 52
-35 32z m-1927 -184 c18 -11 41 -34 52 -52 45 -74 14 -155 -104 -274 -118
-118 -201 -141 -283 -78 l-33 25 38 57 c54 81 83 154 86 221 4 71 8 78 60 101
57 26 142 25 184 0z m-535 -2 c81 -24 147 -114 147 -199 0 -42 -27 -118 -55
-154 -48 -64 -68 -69 -295 -76 -113 -4 -227 -12 -254 -18 -27 -6 -51 -10 -53
-7 -15 15 144 264 215 338 104 110 196 146 295 116z"/>
<path d="M11004 3452 c-17 -9 -53 -31 -79 -49 -85 -57 -241 -77 -408 -52 -40
6 -146 24 -237 40 -370 66 -531 44 -675 -92 -83 -78 -70 -120 18 -61 63 43
100 52 211 52 90 0 247 -14 285 -26 8 -3 -27 -31 -80 -66 -225 -148 -354 -337
-367 -536 -15 -243 149 -437 412 -487 249 -48 488 29 677 219 142 142 198 278
155 381 -17 39 -42 55 -88 55 -43 0 -76 -24 -94 -66 -19 -46 -18 -55 16 -105
18 -26 30 -57 30 -77 0 -49 -36 -116 -91 -167 -87 -81 -192 -116 -349 -117
-327 -1 -548 214 -519 507 13 141 121 269 294 351 121 58 179 68 329 56 182
-14 282 1 400 59 71 36 177 118 196 153 19 37 3 50 -36 28z"/>
<path d="M2662 3414 c-70 -18 -107 -38 -166 -87 l-48 -40 -25 32 c-56 71 -157
104 -255 81 -83 -19 -219 -103 -320 -199 l-38 -35 10 35 c24 82 4 170 -43 199
-91 56 -316 -18 -388 -127 -35 -53 -22 -56 66 -12 157 77 259 14 226 -143 -60
-290 -467 -1013 -854 -1518 -145 -189 -289 -352 -473 -536 -176 -175 -213
-218 -196 -228 21 -13 91 44 266 218 421 418 779 908 1126 1538 l53 97 51 11
c85 19 235 23 372 11 71 -6 184 -14 251 -16 146 -5 192 6 284 67 72 48 218
185 264 247 17 22 32 41 35 41 3 0 33 -60 68 -134 75 -157 106 -198 167 -222
41 -15 52 -15 101 -4 30 8 84 30 120 51 35 21 64 35 64 32 0 -11 -93 -187
-175 -333 -321 -567 -637 -993 -1021 -1375 -176 -176 -213 -219 -196 -229 21
-12 86 40 250 203 484 479 949 1137 1262 1783 102 211 166 313 239 381 92 86
154 97 241 45 42 -26 61 -45 83 -88 26 -50 29 -62 25 -135 -10 -183 -123 -278
-232 -195 -55 42 -98 40 -142 -4 -88 -88 2 -177 150 -146 126 26 252 147 356
341 74 139 130 208 195 238 56 26 105 27 155 1 99 -51 145 -192 105 -326 -37
-126 -138 -171 -223 -99 -17 14 -43 25 -59 25 -39 0 -94 -38 -106 -73 -35
-106 103 -152 248 -82 85 41 211 169 255 259 29 58 35 82 38 158 4 84 3 92
-27 153 -35 71 -74 107 -137 125 -99 29 -263 -49 -385 -184 l-46 -50 -7 39
c-18 92 -84 174 -160 195 -96 27 -201 -16 -345 -140 -63 -54 -78 -64 -71 -44
26 67 -4 169 -57 193 -34 16 -120 14 -180 -4 -66 -20 -166 -87 -192 -129 -36
-57 -26 -59 64 -15 66 32 143 41 181 21 12 -6 29 -28 39 -48 22 -46 16 -95
-26 -221 -25 -77 -37 -97 -67 -121 -121 -95 -195 -94 -263 4 -17 26 -62 114
-100 196 -77 170 -129 266 -156 290 -52 47 -134 58 -231 32z m64 -144 c45 -28
77 -97 68 -145 -9 -50 -73 -143 -142 -206 -99 -90 -179 -111 -243 -64 -19 14
-42 28 -51 31 -15 5 -13 12 17 51 58 75 86 145 93 225 l7 73 54 28 c69 34 147
37 197 7z m-545 -1 c131 -40 187 -189 119 -318 -17 -31 -46 -66 -64 -79 -40
-27 -149 -46 -216 -37 -49 7 -242 -10 -304 -26 -21 -6 -41 -8 -44 -4 -10 10
92 206 141 270 26 33 76 85 112 115 99 83 169 105 256 79z"/>
<path d="M12245 3415 c-155 -39 -221 -102 -349 -333 -101 -181 -210 -274 -324
-275 -64 0 -101 15 -151 65 -48 47 -71 102 -71 174 0 138 76 234 186 234 12 0
41 -16 65 -35 26 -21 55 -35 72 -35 40 0 84 26 102 60 67 130 -113 190 -290
97 -72 -39 -190 -154 -227 -223 -84 -156 -71 -314 35 -411 106 -97 246 -80
432 52 33 23 69 52 79 64 11 11 22 21 26 21 4 0 5 -45 2 -100 -4 -95 -4 -100
15 -100 24 0 97 51 117 82 9 15 16 62 19 133 6 126 23 199 72 303 28 60 41 75
69 87 46 19 126 19 153 0 31 -22 47 -78 39 -141 -12 -107 -97 -306 -167 -395
-16 -20 -29 -44 -29 -53 0 -25 35 -19 71 12 58 48 86 85 150 197 89 156 128
212 196 276 128 122 247 140 344 52 61 -56 83 -105 84 -188 0 -139 -63 -222
-173 -227 -29 -1 -49 6 -77 27 -62 48 -139 34 -170 -30 -21 -46 -19 -69 9
-102 23 -27 28 -28 108 -27 97 0 155 23 250 99 214 168 267 428 116 572 -118
113 -304 75 -508 -105 l-61 -54 6 64 c6 54 3 70 -17 108 -13 25 -34 51 -48 57
-31 16 -90 15 -155 -2z"/>
<path d="M15081 3420 c-105 -22 -251 -121 -251 -171 0 -26 19 -24 85 11 60 32
137 40 176 20 56 -31 62 -118 18 -257 -37 -117 -77 -199 -130 -270 -47 -64
-51 -88 -11 -80 15 4 59 13 97 22 109 24 249 29 391 15 256 -26 415 -11 535
50 39 20 53 14 23 -11 -14 -12 -44 -61 -44 -74 0 -15 42 -2 78 25 55 40 112
118 166 225 44 91 106 268 106 306 0 28 71 58 136 59 43 0 54 -4 80 -31 27
-28 29 -36 28 -97 -2 -113 -81 -313 -169 -428 -42 -55 -43 -64 -8 -64 44 0
137 105 212 240 126 225 219 337 301 361 88 26 191 -39 226 -143 33 -99 -3
-257 -68 -300 -50 -33 -85 -32 -139 3 -75 48 -136 41 -172 -21 -24 -39 -21
-74 7 -107 23 -26 29 -28 103 -28 105 0 170 32 273 135 60 60 87 98 133 185
68 130 116 197 175 242 78 59 157 54 227 -14 53 -54 75 -105 75 -184 0 -123
-54 -219 -134 -233 -33 -6 -44 -3 -80 22 -65 47 -114 46 -162 -2 -42 -42 -45
-82 -10 -123 23 -26 29 -28 103 -28 71 0 84 4 150 39 128 68 242 212 273 345
29 124 -12 254 -99 316 -34 24 -54 30 -109 33 -62 3 -73 1 -147 -37 -51 -25
-108 -65 -157 -111 -50 -46 -80 -67 -82 -58 -3 7 -9 29 -15 49 -30 95 -114
159 -209 159 -91 0 -181 -46 -295 -150 l-55 -50 0 59 c0 119 -52 170 -161 156
-67 -8 -146 -37 -195 -70 l-36 -25 -17 35 c-24 50 -70 69 -146 60 -79 -9 -154
-38 -212 -82 l-48 -36 -26 30 c-36 43 -69 61 -129 73 -105 19 -243 -36 -385
-156 l-78 -65 6 45 c10 63 -2 118 -34 156 -22 27 -35 33 -76 36 -28 1 -70 -1
-94 -6z m1057 -153 c29 -31 44 -83 36 -127 -12 -70 -54 -198 -74 -223 -38 -48
-134 -86 -248 -97 -56 -6 -107 -8 -113 -5 -5 4 17 35 50 70 36 39 75 95 98
142 34 68 38 85 38 150 l0 73 40 20 c24 11 62 19 96 20 46 0 59 -4 77 -23z
m-505 2 c47 -13 115 -72 134 -116 17 -43 17 -132 -2 -177 -25 -59 -79 -112
-127 -124 -24 -6 -128 -13 -233 -16 -104 -2 -210 -10 -234 -16 -24 -6 -45 -9
-48 -7 -4 5 71 138 131 231 72 112 158 188 254 222 46 16 76 17 125 3z"/>
<path d="M5389 3405 c-72 -14 -150 -58 -220 -123 -209 -193 -228 -469 -40
-580 39 -23 57 -27 122 -27 69 0 83 4 160 42 46 23 116 68 154 100 l70 59 -3
-103 c-3 -90 -1 -103 13 -103 23 0 100 57 113 83 6 12 13 65 16 117 9 166 55
305 135 410 22 30 40 59 38 65 -7 20 -34 15 -75 -15 -53 -38 -95 -96 -174
-240 -104 -188 -215 -283 -333 -283 -140 0 -244 142 -215 292 15 81 47 132
100 159 64 32 100 29 150 -13 55 -46 96 -47 145 -4 31 27 35 37 35 78 0 34 -5
53 -19 65 -27 24 -107 34 -172 21z"/>
<path d="M14144 3391 c-85 -31 -145 -71 -225 -150 -53 -54 -86 -96 -110 -146
-31 -63 -34 -78 -34 -155 0 -98 19 -145 80 -198 67 -60 94 -66 265 -67 150 0
157 1 231 31 136 55 279 165 279 214 0 30 -18 25 -90 -25 -100 -69 -163 -87
-305 -89 -106 -1 -126 2 -170 22 -60 28 -112 75 -131 119 -19 43 -18 155 1
201 32 75 97 118 193 128 55 6 59 5 102 -31 39 -33 49 -36 85 -32 70 10 114
85 89 152 -18 46 -162 61 -260 26z"/>
<path d="M18388 3395 c-154 -57 -305 -231 -338 -389 -38 -184 95 -349 269
-333 91 8 177 54 337 180 l22 18 -5 -95 c-7 -111 2 -123 61 -86 71 44 82 66
89 186 9 166 56 310 132 405 85 108 4 103 -91 -5 -27 -30 -80 -112 -119 -181
-78 -142 -145 -219 -226 -261 -117 -59 -240 -16 -305 106 -28 52 -26 180 4
237 30 57 79 92 139 99 45 6 52 4 92 -30 58 -49 100 -49 147 -2 34 34 44 78
28 121 -17 43 -153 60 -236 30z"/>
</g>
</svg>
